 http://www.shotpix.com/images/37670491479505827818.jpeg


File size : 1.54 GiB
Duration : 1h 44mn
Overall bit rate : 2 107 Kbps

Video
ID : 0
Format : MPEG-4 Visual
Format profile : Advanced Simple@L5
Format settings, BVOP : 2
Format settings, QPel : No
Format settings, GMC : No warppoints
Format settings, Matrix : Default (H.263)
Codec ID : XVID
Codec ID/Hint : XviD
Duration : 1h 44mn
Bit rate : 1 651 Kbps
Width : 720 pixels
Height : 304 pixels
Display aspect ratio : 2.35:1
Frame rate : 25.000 fps
Color space : YUV
Chroma subsampling : 4:2:0
Bit depth : 8 bits
Scan type : Progressive
Compression mode : Lossy
Bits/(Pixel*Frame) : 0.302
Stream size : 1.20 GiB (78%)
Writing library : XviD 1.2.1 (UTC 2008-12-04)

Audio
ID : 1
Format : AC-3
Format/Info : Audio Coding 3
Mode extension : CM (complete main)
Format settings, Endianness : Big
Codec ID : 2000
Duration : 1h 44mn
Bit rate mode : Constant
Bit rate : 448 Kbps
Channel(s) : 6 channels
Channel positions : Front: L C R, Side: L R, LFE
Sampling rate : 48.0 KHz
Bit depth : 16 bits
Compression mode : Lossy
Stream size : 334 MiB (21%)
Alignment : Aligned on interleaves
Interleave, duration : 64 ms (1.60 video frames)
Interleave, preload duration : 192 ms
Title : VTS_01_1 T81 3_2ch 448Kbps DELAY 0ms_new

Imdbuk.imdb.com/title/tt1329232/

Source ........Thanks Sam bro
Sample enclosed

Hardcoded English when and if required!.

Plot
Follows two infamous London gangsters, Mickey Mannock and Ray Collishaw. Both men are top of the food chain when their world is turned upside down as they lose a shipment of the Russian Mafia's cocaine.


 
http://www.shotpix.com/images/92719688893510308101.png 
http://www.shotpix.com/images/28753935580821598108.png 
http://www.shotpix.com/images/14029635946281395135.png